<svg width="82" height="24" viewBox="0 0 82 24" fill="none" xmlns="http://www.w3.org/2000/svg">
  <defs>
    <linearGradient id="a" x1="0" y1="0" x2="24" y2="24" gradientUnits="userSpaceOnUse">
      <stop stop-color="#94A3B8"/>
      <stop offset="1" stop-color="#64748B"/>
    </linearGradient>
  </defs>
  <!-- left avatar -->
  <g>
    <circle cx="12" cy="12" r="10" fill="url(#a)"/>
    <circle cx="12" cy="9" r="4" fill="white"/>
    <path d="M3 21c1.8-4.2 6-6.6 9-6.6s7.2 2.4 9 6.6" fill="white"/>
  </g>
  <!-- middle avatar (closer overlap) -->
  <g transform="translate(18,0)" opacity=".8">
    <circle cx="12" cy="12" r="10" fill="url(#a)"/>
    <circle cx="12" cy="9" r="4" fill="white"/>
    <path d="M3 21c1.8-4.2 6-6.6 9-6.6s7.2 2.4 9 6.6" fill="white"/>
  </g>
  <!-- right avatar (closer overlap) -->
  <g transform="translate(34,0)" opacity=".6">
    <circle cx="12" cy="12" r="10" fill="url(#a)"/>
    <circle cx="12" cy="9" r="4" fill="white"/>
    <path d="M3 21c1.8-4.2 6-6.6 9-6.6s7.2 2.4 9 6.6" fill="white"/>
  </g>
  <!-- 90+ badge -->
  <g transform="translate(56,0)">
    <circle cx="12" cy="12" r="10" fill="white" stroke="#E5E7EB"/>
    <text x="12" y="15" text-anchor="middle" font-size="10" font-family="Inter, Arial, sans-serif" fill="#111827" font-weight="700">90+</text>
  </g>
</svg>
